<svg width="70" height="52" viewBox="0 0 70 52" fill="none" xmlns="http://www.w3.org/2000/svg">
<path d="M12.7181 0H0L25.9997 39.0398H33.1637L22.9409 9.17637H17.4673L12.7181 0Z" fill="white"/>
<path d="M56.8307 0H69.5488L43.5491 39.0398H36.3851L46.6079 9.17637H52.0815L56.8307 0Z" fill="white"/>
<path d="M34.6934 52L29.4651 44.1518H39.9217L34.6934 52Z" fill="white"/>
<path d="M17.7083 6.84213H25.5968L34.8537 37.1885L44.2715 6.84213H51.838L54.7358 1.20752H14.8105L17.7083 6.84213Z" fill="white"/>
<path d="M18.1158 40.3549L18.9212 42.7118H18.9537L19.7592 40.3549H20.2311L19.1897 43.2488H18.6852L17.6438 40.3549H18.1158ZM20.9961 43.2488H20.5326L21.574 40.3549H22.0785L23.1199 43.2488H22.6564L21.8382 40.8805H21.8156L20.9961 43.2488ZM21.0738 42.1155H22.5773V42.4829H21.0738V42.1155ZM23.9357 43.2488V40.3549H24.9672C25.1914 40.3549 25.3775 40.3935 25.5254 40.4707C25.6742 40.548 25.7854 40.6549 25.8588 40.7915C25.9323 40.9272 25.969 41.084 25.969 41.262C25.969 41.4391 25.9318 41.5951 25.8574 41.7298C25.7839 41.8635 25.6728 41.9676 25.5239 42.042C25.376 42.1165 25.19 42.1537 24.9658 42.1537H24.1844V41.7778H24.9262C25.0675 41.7778 25.1825 41.7576 25.271 41.717C25.3605 41.6765 25.426 41.6177 25.4674 41.5404C25.5089 41.4632 25.5296 41.3704 25.5296 41.262C25.5296 41.1528 25.5084 41.0581 25.466 40.978C25.4246 40.898 25.3591 40.8367 25.2696 40.7943C25.181 40.751 25.0647 40.7293 24.9206 40.7293H24.3723V43.2488H23.9357ZM25.3643 41.9431L26.0793 43.2488H25.5819L24.881 41.9431H25.3643ZM26.7555 40.7307V40.3549H28.9952V40.7307H28.0923V43.2488H27.6571V40.7307H26.7555ZM29.888 43.2488V40.3549H31.7024V40.7307H30.3247V41.6125H31.6077V41.9869H30.3247V42.8729H31.7193V43.2488H29.888ZM32.6835 43.2488V40.3549H33.1202V42.8729H34.4315V43.2488H32.6835ZM35.3275 43.2488V40.3549H37.1418V40.7307H35.7641V41.6125H37.0471V41.9869H35.7641V42.8729H37.1588V43.2488H35.3275ZM38.123 40.3549H38.6529L39.5742 42.6044H39.6081L40.5294 40.3549H41.0593V43.2488H40.6438V41.1547H40.617L39.7635 43.2445H39.4187L38.5652 41.1532H38.5384V43.2488H38.123V40.3549ZM42.3364 43.2488H41.873L42.9144 40.3549H43.4188L44.4602 43.2488H43.9968L43.1786 40.8805H43.156L42.3364 43.2488ZM42.4142 42.1155H43.9176V42.4829H42.4142V42.1155ZM44.7914 40.7307V40.3549H47.0311V40.7307H46.1281V43.2488H45.6929V40.7307H44.7914ZM48.3605 40.3549V43.2488H47.9239V40.3549H48.3605ZM51.7979 41.296H51.357C51.34 41.2018 51.3085 41.1189 51.2623 41.0473C51.2162 40.9757 51.1597 40.9149 51.0928 40.865C51.0259 40.8151 50.951 40.7774 50.8681 40.7519C50.7861 40.7265 50.699 40.7138 50.6067 40.7138C50.4399 40.7138 50.2906 40.7557 50.1587 40.8395C50.0278 40.9234 49.9242 41.0463 49.8479 41.2083C49.7725 41.3704 49.7348 41.5682 49.7348 41.8018C49.7348 42.0373 49.7725 42.2361 49.8479 42.3981C49.9242 42.5602 50.0283 42.6826 50.1602 42.7655C50.292 42.8484 50.4404 42.8899 50.6053 42.8899C50.6966 42.8899 50.7833 42.8776 50.8653 42.8531C50.9482 42.8277 51.0231 42.7905 51.0899 42.7415C51.1568 42.6925 51.2133 42.6327 51.2595 42.562C51.3066 42.4904 51.3391 42.4085 51.357 42.3162L51.7979 42.3176C51.7743 42.4598 51.7286 42.5908 51.6608 42.7104C51.5939 42.8291 51.5077 42.9318 51.4022 43.0185C51.2977 43.1042 51.178 43.1706 51.0433 43.2177C50.9086 43.2648 50.7616 43.2883 50.6024 43.2883C50.3519 43.2883 50.1286 43.229 49.9327 43.1103C49.7367 42.9907 49.5822 42.8197 49.4692 42.5974C49.3571 42.375 49.301 42.1099 49.301 41.8018C49.301 41.4928 49.3576 41.2277 49.4706 41.0063C49.5836 40.784 49.7381 40.6135 49.9341 40.4948C50.13 40.3751 50.3528 40.3153 50.6024 40.3153C50.756 40.3153 50.8992 40.3374 51.032 40.3817C51.1658 40.4251 51.2859 40.4891 51.3923 40.5739C51.4988 40.6577 51.5869 40.7604 51.6566 40.8819C51.7263 41.0025 51.7734 41.1405 51.7979 41.296Z" fill="white"/>
</svg>
