<svg width="60" height="63" viewBox="0 0 60 63" fill="none" xmlns="http://www.w3.org/2000/svg">
<path d="M2.34537 5.97322L3.65316 1.75443H4.75199L2.90019 7H2.16884L2.34537 5.97322ZM1.13846 1.75443L2.43904 5.97322L2.62639 7H1.88783L0.0432327 1.75443H1.13846ZM7.69484 2.55064L6.19971 7H5.15132L7.1112 1.75443H7.78131L7.69484 2.55064ZM8.94499 7L7.44265 2.55064L7.35258 1.75443H8.02629L9.99698 7H8.94499ZM8.87654 5.05093V5.83272H6.06281V5.05093H8.87654ZM11.1277 1.75443H13.0335C13.4322 1.75443 13.7745 1.81448 14.0603 1.93457C14.3461 2.05466 14.5659 2.2324 14.7196 2.46777C14.8733 2.70315 14.9502 2.99257 14.9502 3.33603C14.9502 3.60743 14.9021 3.84281 14.806 4.04216C14.71 4.24151 14.5743 4.40844 14.3989 4.54294C14.226 4.67744 14.0218 4.78312 13.7865 4.85998L13.4766 5.0185H11.7942L11.787 4.23671H13.0443C13.2485 4.23671 13.4178 4.20068 13.5523 4.12863C13.6868 4.05657 13.7877 3.9569 13.8549 3.8296C13.9246 3.70231 13.9594 3.557 13.9594 3.39367C13.9594 3.21834 13.9258 3.06703 13.8585 2.93973C13.7913 2.81003 13.6892 2.71036 13.5523 2.6407C13.4154 2.57105 13.2425 2.53622 13.0335 2.53622H12.1184V7H11.1277V1.75443ZM14.0891 7L12.875 4.65102L13.9234 4.64742L15.1519 6.94956V7H14.0891ZM18.4298 1.75443V7H17.4427V1.75443H18.4298ZM20.0582 1.75443V2.53622H15.8322V1.75443H20.0582ZM24.7844 6.22181V7H21.9959V6.22181H24.7844ZM22.2986 1.75443V7H21.3078V1.75443H22.2986ZM24.4206 3.91967V4.67985H21.9959V3.91967H24.4206ZM24.7736 1.75443V2.53622H21.9959V1.75443H24.7736ZM29.3917 6.22181V7H26.7545V6.22181H29.3917ZM27.0536 1.75443V7H26.0628V1.75443H27.0536ZM34.1215 6.22181V7H31.333V6.22181H34.1215ZM31.6357 1.75443V7H30.6449V1.75443H31.6357ZM33.7577 3.91967V4.67985H31.333V3.91967H33.7577ZM34.1107 1.75443V2.53622H31.333V1.75443H34.1107ZM35.8323 1.75443H36.6897L38.1236 5.70302L39.5539 1.75443H40.4149L38.4659 7H37.7777L35.8323 1.75443ZM35.3999 1.75443H36.2394L36.3907 5.38238V7H35.3999V1.75443ZM40.0042 1.75443H40.8473V7H39.8565V5.38238L40.0042 1.75443ZM44.5971 2.55064L43.102 7H42.0536L44.0135 1.75443H44.6836L44.5971 2.55064ZM45.8473 7L44.3449 2.55064L44.2549 1.75443H44.9286L46.8993 7H45.8473ZM45.7788 5.05093V5.83272H42.9651V5.05093H45.7788ZM49.8277 1.75443V7H48.8405V1.75443H49.8277ZM51.4561 1.75443V2.53622H47.2301V1.75443H51.4561ZM53.7613 1.75443V7H52.7705V1.75443H53.7613ZM58.4911 5.2743H59.4818C59.4554 5.62496 59.3581 5.936 59.19 6.2074C59.0219 6.4764 58.7877 6.68776 58.4875 6.84148C58.1873 6.9952 57.8234 7.07205 57.3959 7.07205C57.0668 7.07205 56.7702 7.01441 56.506 6.89912C56.2442 6.78143 56.0196 6.61451 55.8323 6.39835C55.6473 6.17978 55.5056 5.91798 55.4072 5.61295C55.3087 5.30552 55.2594 4.96086 55.2594 4.57897V4.17907C55.2594 3.79718 55.3099 3.45252 55.4108 3.14509C55.5116 2.83765 55.6557 2.57585 55.8431 2.35969C56.0328 2.14113 56.2598 1.973 56.524 1.85531C56.7906 1.73762 57.0884 1.67878 57.4175 1.67878C57.845 1.67878 58.2065 1.75804 58.5019 1.91656C58.7973 2.07267 59.0267 2.28764 59.19 2.56144C59.3533 2.83525 59.4518 3.14989 59.4854 3.50536H58.4947C58.4755 3.28439 58.4274 3.09705 58.3506 2.94333C58.2761 2.78962 58.1632 2.67313 58.0119 2.59387C57.863 2.51221 57.6649 2.47138 57.4175 2.47138C57.2253 2.47138 57.056 2.5074 56.9095 2.57946C56.7654 2.65151 56.6453 2.75959 56.5492 2.9037C56.4532 3.04541 56.3811 3.22314 56.3331 3.43691C56.285 3.64827 56.261 3.89325 56.261 4.17186V4.57897C56.261 4.84557 56.2826 5.08455 56.3259 5.29591C56.3691 5.50727 56.4363 5.68621 56.5276 5.83272C56.6189 5.97923 56.7366 6.09091 56.8807 6.16777C57.0248 6.24463 57.1965 6.28306 57.3959 6.28306C57.6384 6.28306 57.8354 6.24463 57.9867 6.16777C58.1404 6.09091 58.2569 5.97803 58.3362 5.82911C58.4178 5.6802 58.4695 5.49526 58.4911 5.2743Z" fill="white"/>
<path d="M14.053 16.0666L11.2109 9.67188H48.7671L45.925 16.0666H36.3837L30.007 48.1383L23.4928 16.0666H14.053Z" fill="white"/>
<path d="M8.58846 8.79712H0.283203L30.0073 62.9998V55.1317L22.1391 17.1024H12.5225L8.58846 8.79712Z" fill="white"/>
<path d="M51.4252 8.79712H59.7305L30.0064 62.9998L29.6541 59.1687L30.0064 55.1317L37.8745 17.1024H47.4911L51.4252 8.79712Z" fill="white"/>
</svg>
